# xmcd
#
# Track frame offsets: 
#        150
#        28750
#        57162
#        90354
#        119218
#        146529
#        177792
#        206074
#        247643
#        275618
#        303923
#
# Disc length: 4774 seconds
#
# Revision: 0
# Processed by: cddbd v1.5.2PL0 Copyright (c) Steve Scherf et al.
# Submitted via: ExactAudioCopy v1.3
#
DISCID=9512a40b
DTITLE=Various Artist - Akella Presents - vol. 177 - Long Time of Roc
DTITLE=kin' Blues  CD2
DYEAR=2019
DGENRE=Blues
TTITLE0=Drink Small - I'm Tired Now
TTITLE1=Twenty Four Seven - Hard Times
TTITLE2=Dave Steffen Band - Doin' It To Me Right
TTITLE3=Big Al Carson - Dip My Dipper
TTITLE4=Wily Bo Walker - Moon Over Indigo
TTITLE5=George Bedard And The Kingpins - Cold Cold Feeling
TTITLE6=Frank Frost - Repo Man Blues
TTITLE7=Anthony Geraci and Sugar Ray Norcia - My Last Good Bye
TTITLE8=Mungo Jerry - You Can Get It If You Want It
TTITLE9=Rick Tobey - Deep Enough Blues
TTITLE10=Baxter Hall - Always Blue
EXTD=
EXTT0=
EXTT1=
EXTT2=
EXTT3=
EXTT4=
EXTT5=
EXTT6=
EXTT7=
EXTT8=
EXTT9=
EXTT10=
PLAYORDER=
